# xmcd
#
# Track frame offsets: 
#        150
#        14834
#        28229
#        38651
#        52534
#        64680
#        75226
#        86997
#        97043
#        108166
#        120713
#        131250
#        145666
#        161725
#
# Disc length: 2374 seconds
#
# Revision: 0
# Processed by: cddbd v1.5.1PL0 Copyright (c) Steve Scherf et al.
# Submitted via: ExactAudioCopy v0.95b3
#
DISCID=ae09440e
DTITLE=Louis Armstrong - The Best Of Louis Armstrong
DYEAR=1900
DGENRE=
TTITLE0=01 - I Will Wait For You
TTITLE1=02 - Tin Roof Blues
TTITLE2=03 - What A Wonderful World
TTITLE3=04 - Bye'n'bye
TTITLE4=05 - Short But Sweet
TTITLE5=06 - Mame
TTITLE6=07 - The Circle Of Your Arms
TTITLE7=08 - So Long Dearie
TTITLE8=09 - Cheescake
TTITLE9=10 - Tyree's Blues
TTITLE10=11 - Pretty Little Missy
TTITLE11=12 - When The Saints Go Marchin' In
TTITLE12=13 - I Can't Give You Anything But Love
TTITLE13=14 - If I Colud Be With You
EXTD=
EXTT0=
EXTT1=
EXTT2=
EXTT3=
EXTT4=
EXTT5=
EXTT6=
EXTT7=
EXTT8=
EXTT9=
EXTT10=
EXTT11=
EXTT12=
EXTT13=
PLAYORDER=
